<?xml version="1.0" encoding="utf-8"?>
<!-- Generator: Adobe Illustrator 25.0.0, SVG Export Plug-In . SVG Version: 6.00 Build 0)  -->
<svg version="1.1" id="Layer_1" xmlns="http://www.w3.org/2000/svg" xmlns:xlink="http://www.w3.org/1999/xlink" x="0px" y="0px"
	 viewBox="0 0 2880 1800" style="enable-background:new 0 0 2880 1800;" xml:space="preserve">
<style type="text/css">
	.st0{fill:none;stroke:#8ACECB;stroke-width:26.7499;stroke-miterlimit:10;}
</style>
<g>
	<g>
		<path class="st0" d="M-13.09,52.09c27.42,0,27.42,12.84,54.84,12.84c27.42,0,27.42-12.84,54.85-12.84
			c27.42,0,27.42,12.84,54.84,12.84c27.42,0,27.42-12.84,54.85-12.84c27.42,0,27.42,12.84,54.84,12.84
			c27.42,0,27.42-12.84,54.85-12.84c27.42,0,27.42,12.84,54.84,12.84c27.42,0,27.42-12.84,54.85-12.84
			c27.42,0,27.42,12.84,54.84,12.84c27.42,0,27.42-12.84,54.85-12.84c27.42,0,27.42,12.84,54.84,12.84
			c27.42,0,27.42-12.84,54.85-12.84c27.42,0,27.42,12.84,54.85,12.84c27.42,0,27.42-12.84,54.85-12.84
			c27.42,0,27.42,12.84,54.85,12.84c27.42,0,27.42-12.84,54.85-12.84c27.42,0,27.42,12.84,54.85,12.84
			c27.43,0,27.43-12.84,54.85-12.84c27.42,0,27.42,12.84,54.85,12.84c27.42,0,27.42-12.84,54.85-12.84
			c27.42,0,27.42,12.84,54.85,12.84c27.42,0,27.42-12.84,54.85-12.84c27.42,0,27.42,12.84,54.85,12.84
			c27.43,0,27.43-12.84,54.85-12.84c27.43,0,27.43,12.84,54.85,12.84c27.43,0,27.43-12.84,54.85-12.84
			c27.42,0,27.42,12.84,54.85,12.84c27.42,0,27.42-12.84,54.85-12.84c27.42,0,27.42,12.84,54.85,12.84
			c27.43,0,27.43-12.84,54.85-12.84c27.42,0,27.42,12.84,54.85,12.84c27.43,0,27.43-12.84,54.85-12.84
			c27.42,0,27.42,12.84,54.85,12.84c27.43,0,27.43-12.84,54.85-12.84c27.43,0,27.43,12.84,54.85,12.84s27.43-12.84,54.85-12.84
			c27.43,0,27.43,12.84,54.85,12.84c27.43,0,27.43-12.84,54.85-12.84c27.42,0,27.42,12.84,54.85,12.84
			c27.43,0,27.43-12.84,54.85-12.84c27.42,0,27.42,12.84,54.85,12.84c27.42,0,27.42-12.84,54.85-12.84
			c27.43,0,27.43,12.84,54.85,12.84c27.43,0,27.43-12.84,54.85-12.84c27.43,0,27.43,12.84,54.85,12.84
			c27.43,0,27.43-12.84,54.85-12.84c27.43,0,27.43,12.84,54.85,12.84c27.43,0,27.43-12.84,54.85-12.84
			c27.43,0,27.43,12.84,54.85,12.84c27.43,0,27.43-12.84,54.85-12.84c27.43,0,27.43,12.84,54.85,12.84
			c27.43,0,27.43-12.84,54.86-12.84s27.43,12.84,54.86,12.84"/>
	</g>
	<g>
		<path class="st0" d="M-13.09,132.4c27.42,0,27.42,12.84,54.84,12.84c27.42,0,27.42-12.84,54.85-12.84
			c27.42,0,27.42,12.84,54.84,12.84c27.42,0,27.42-12.84,54.85-12.84c27.42,0,27.42,12.84,54.84,12.84
			c27.42,0,27.42-12.84,54.85-12.84c27.42,0,27.42,12.84,54.84,12.84c27.42,0,27.42-12.84,54.85-12.84
			c27.42,0,27.42,12.84,54.84,12.84c27.42,0,27.42-12.84,54.85-12.84c27.42,0,27.42,12.84,54.84,12.84
			c27.42,0,27.42-12.84,54.85-12.84c27.42,0,27.42,12.84,54.85,12.84c27.42,0,27.42-12.84,54.85-12.84
			c27.42,0,27.42,12.84,54.85,12.84c27.42,0,27.42-12.84,54.85-12.84c27.42,0,27.42,12.84,54.85,12.84
			c27.43,0,27.43-12.84,54.85-12.84c27.42,0,27.42,12.84,54.85,12.84c27.42,0,27.42-12.84,54.85-12.84
			c27.42,0,27.42,12.84,54.85,12.84c27.42,0,27.42-12.84,54.85-12.84c27.42,0,27.42,12.84,54.85,12.84
			c27.43,0,27.43-12.84,54.85-12.84c27.43,0,27.43,12.84,54.85,12.84c27.43,0,27.43-12.84,54.85-12.84
			c27.42,0,27.42,12.84,54.85,12.84c27.42,0,27.42-12.84,54.85-12.84c27.42,0,27.42,12.84,54.85,12.84
			c27.43,0,27.43-12.84,54.85-12.84c27.42,0,27.42,12.84,54.85,12.84c27.43,0,27.43-12.84,54.85-12.84
			c27.42,0,27.42,12.84,54.85,12.84c27.43,0,27.43-12.84,54.85-12.84c27.43,0,27.43,12.84,54.85,12.84s27.43-12.84,54.85-12.84
			c27.43,0,27.43,12.84,54.85,12.84c27.43,0,27.43-12.84,54.85-12.84c27.42,0,27.42,12.84,54.85,12.84
			c27.43,0,27.43-12.84,54.85-12.84c27.42,0,27.42,12.84,54.85,12.84c27.42,0,27.42-12.84,54.85-12.84
			c27.43,0,27.43,12.84,54.85,12.84c27.43,0,27.43-12.84,54.85-12.84c27.43,0,27.43,12.84,54.85,12.84
			c27.43,0,27.43-12.84,54.85-12.84c27.43,0,27.43,12.84,54.85,12.84c27.43,0,27.43-12.84,54.85-12.84
			c27.43,0,27.43,12.84,54.85,12.84c27.43,0,27.43-12.84,54.85-12.84c27.43,0,27.43,12.84,54.85,12.84
			c27.43,0,27.43-12.84,54.86-12.84s27.43,12.84,54.86,12.84"/>
	</g>
	<g>
		<path class="st0" d="M-13.09,213.68c27.42,0,27.42,12.84,54.84,12.84c27.42,0,27.42-12.84,54.85-12.84
			c27.42,0,27.42,12.84,54.84,12.84c27.42,0,27.42-12.84,54.85-12.84c27.42,0,27.42,12.84,54.84,12.84
			c27.42,0,27.42-12.84,54.85-12.84c27.42,0,27.42,12.84,54.84,12.84c27.42,0,27.42-12.84,54.85-12.84
			c27.42,0,27.42,12.84,54.84,12.84c27.42,0,27.42-12.84,54.85-12.84c27.42,0,27.42,12.84,54.84,12.84
			c27.42,0,27.42-12.84,54.85-12.84c27.42,0,27.42,12.84,54.85,12.84c27.42,0,27.42-12.84,54.85-12.84
			c27.42,0,27.42,12.84,54.85,12.84c27.42,0,27.42-12.84,54.85-12.84c27.42,0,27.42,12.84,54.85,12.84
			c27.43,0,27.43-12.84,54.85-12.84c27.42,0,27.42,12.84,54.85,12.84c27.42,0,27.42-12.84,54.85-12.84
			c27.42,0,27.42,12.84,54.85,12.84c27.42,0,27.42-12.84,54.85-12.84c27.42,0,27.42,12.84,54.85,12.84
			c27.43,0,27.43-12.84,54.85-12.84c27.43,0,27.43,12.84,54.85,12.84c27.43,0,27.43-12.84,54.85-12.84
			c27.42,0,27.42,12.84,54.85,12.84c27.42,0,27.42-12.84,54.85-12.84c27.42,0,27.42,12.84,54.85,12.84
			c27.43,0,27.43-12.84,54.85-12.84c27.42,0,27.42,12.84,54.85,12.84c27.43,0,27.43-12.84,54.85-12.84
			c27.42,0,27.42,12.84,54.85,12.84c27.43,0,27.43-12.84,54.85-12.84c27.43,0,27.43,12.84,54.85,12.84s27.43-12.84,54.85-12.84
			c27.43,0,27.43,12.84,54.85,12.84c27.43,0,27.43-12.84,54.85-12.84c27.42,0,27.42,12.84,54.85,12.84
			c27.43,0,27.43-12.84,54.85-12.84c27.42,0,27.42,12.84,54.85,12.84c27.42,0,27.42-12.84,54.85-12.84
			c27.43,0,27.43,12.84,54.85,12.84c27.43,0,27.43-12.84,54.85-12.84c27.43,0,27.43,12.84,54.85,12.84
			c27.43,0,27.43-12.84,54.85-12.84c27.43,0,27.43,12.84,54.85,12.84c27.43,0,27.43-12.84,54.85-12.84
			c27.43,0,27.43,12.84,54.85,12.84c27.43,0,27.43-12.84,54.85-12.84c27.43,0,27.43,12.84,54.85,12.84
			c27.43,0,27.43-12.84,54.86-12.84s27.43,12.84,54.86,12.84"/>
	</g>
	<g>
		<path class="st0" d="M-13.09,291.76c27.42,0,27.42,12.84,54.84,12.84c27.42,0,27.42-12.84,54.85-12.84
			c27.42,0,27.42,12.84,54.84,12.84c27.42,0,27.42-12.84,54.85-12.84c27.42,0,27.42,12.84,54.84,12.84
			c27.42,0,27.42-12.84,54.85-12.84c27.42,0,27.42,12.84,54.84,12.84c27.42,0,27.42-12.84,54.85-12.84
			c27.42,0,27.42,12.84,54.84,12.84c27.42,0,27.42-12.84,54.85-12.84c27.42,0,27.42,12.84,54.84,12.84
			c27.42,0,27.42-12.84,54.85-12.84c27.42,0,27.42,12.84,54.85,12.84c27.42,0,27.42-12.84,54.85-12.84
			c27.42,0,27.42,12.84,54.85,12.84c27.42,0,27.42-12.84,54.85-12.84c27.42,0,27.42,12.84,54.85,12.84
			c27.43,0,27.43-12.84,54.85-12.84c27.42,0,27.42,12.84,54.85,12.84c27.42,0,27.42-12.84,54.85-12.84
			c27.42,0,27.42,12.84,54.85,12.84c27.42,0,27.42-12.84,54.85-12.84c27.42,0,27.42,12.84,54.85,12.84
			c27.43,0,27.43-12.84,54.85-12.84c27.43,0,27.43,12.84,54.85,12.84c27.43,0,27.43-12.84,54.85-12.84
			c27.42,0,27.42,12.84,54.85,12.84c27.42,0,27.42-12.84,54.85-12.84c27.42,0,27.42,12.84,54.85,12.84
			c27.43,0,27.43-12.84,54.85-12.84c27.42,0,27.42,12.84,54.85,12.84c27.43,0,27.43-12.84,54.85-12.84
			c27.42,0,27.42,12.84,54.85,12.84c27.43,0,27.43-12.84,54.85-12.84c27.43,0,27.43,12.84,54.85,12.84s27.43-12.84,54.85-12.84
			c27.43,0,27.43,12.84,54.85,12.84c27.43,0,27.43-12.84,54.85-12.84c27.42,0,27.42,12.84,54.85,12.84
			c27.43,0,27.43-12.84,54.85-12.84c27.42,0,27.42,12.84,54.85,12.84c27.42,0,27.42-12.84,54.85-12.84
			c27.43,0,27.43,12.84,54.85,12.84c27.43,0,27.43-12.84,54.85-12.84c27.43,0,27.43,12.84,54.85,12.84
			c27.43,0,27.43-12.84,54.85-12.84c27.43,0,27.43,12.84,54.85,12.84c27.43,0,27.43-12.84,54.85-12.84
			c27.43,0,27.43,12.84,54.85,12.84c27.43,0,27.43-12.84,54.85-12.84c27.43,0,27.43,12.84,54.85,12.84
			c27.43,0,27.43-12.84,54.86-12.84s27.43,12.84,54.86,12.84"/>
	</g>
	<g>
		<path class="st0" d="M-13.09,373.04c27.42,0,27.42,12.84,54.84,12.84c27.42,0,27.42-12.84,54.85-12.84
			c27.42,0,27.42,12.84,54.84,12.84c27.42,0,27.42-12.84,54.85-12.84c27.42,0,27.42,12.84,54.84,12.84
			c27.42,0,27.42-12.84,54.85-12.84c27.42,0,27.42,12.84,54.84,12.84c27.42,0,27.42-12.84,54.85-12.84
			c27.42,0,27.42,12.84,54.84,12.84c27.42,0,27.42-12.84,54.85-12.84c27.42,0,27.42,12.84,54.84,12.84
			c27.42,0,27.42-12.84,54.85-12.84c27.42,0,27.42,12.84,54.85,12.84c27.42,0,27.42-12.84,54.85-12.84
			c27.42,0,27.42,12.84,54.85,12.84c27.42,0,27.42-12.84,54.85-12.84c27.42,0,27.42,12.84,54.85,12.84
			c27.43,0,27.43-12.84,54.85-12.84c27.42,0,27.42,12.84,54.85,12.84c27.42,0,27.42-12.84,54.85-12.84
			c27.42,0,27.42,12.84,54.85,12.84c27.42,0,27.42-12.84,54.85-12.84c27.42,0,27.42,12.84,54.85,12.84
			c27.43,0,27.43-12.84,54.85-12.84c27.43,0,27.43,12.84,54.85,12.84c27.43,0,27.43-12.84,54.85-12.84
			c27.42,0,27.42,12.84,54.85,12.84c27.42,0,27.42-12.84,54.85-12.84c27.42,0,27.42,12.84,54.85,12.84
			c27.43,0,27.43-12.84,54.85-12.84c27.42,0,27.42,12.84,54.85,12.84c27.43,0,27.43-12.84,54.85-12.84
			c27.42,0,27.42,12.84,54.85,12.84c27.43,0,27.43-12.84,54.85-12.84c27.43,0,27.43,12.84,54.85,12.84s27.43-12.84,54.85-12.84
			c27.43,0,27.43,12.84,54.85,12.84c27.43,0,27.43-12.84,54.85-12.84c27.42,0,27.42,12.84,54.85,12.84
			c27.43,0,27.43-12.84,54.85-12.84c27.42,0,27.42,12.84,54.85,12.84c27.42,0,27.42-12.84,54.85-12.84
			c27.43,0,27.43,12.84,54.85,12.84c27.43,0,27.43-12.84,54.85-12.84c27.43,0,27.43,12.84,54.85,12.84
			c27.43,0,27.43-12.84,54.85-12.84c27.43,0,27.43,12.84,54.85,12.84c27.43,0,27.43-12.84,54.85-12.84
			c27.43,0,27.43,12.84,54.85,12.84c27.43,0,27.43-12.84,54.85-12.84c27.43,0,27.43,12.84,54.85,12.84
			c27.43,0,27.43-12.84,54.86-12.84s27.43,12.84,54.86,12.84"/>
	</g>
	<g>
		<path class="st0" d="M-13.09,453.35c27.42,0,27.42,12.84,54.84,12.84c27.42,0,27.42-12.84,54.85-12.84
			c27.42,0,27.42,12.84,54.84,12.84c27.42,0,27.42-12.84,54.85-12.84c27.42,0,27.42,12.84,54.84,12.84
			c27.42,0,27.42-12.84,54.85-12.84c27.42,0,27.42,12.84,54.84,12.84c27.42,0,27.42-12.84,54.85-12.84
			c27.42,0,27.42,12.84,54.84,12.84c27.42,0,27.42-12.84,54.85-12.84c27.42,0,27.42,12.84,54.84,12.84
			c27.42,0,27.42-12.84,54.85-12.84c27.42,0,27.42,12.84,54.85,12.84c27.42,0,27.42-12.84,54.85-12.84
			c27.42,0,27.42,12.84,54.85,12.84c27.42,0,27.42-12.84,54.85-12.84c27.42,0,27.42,12.84,54.85,12.84
			c27.43,0,27.43-12.84,54.85-12.84c27.42,0,27.42,12.84,54.85,12.84c27.42,0,27.42-12.84,54.85-12.84
			c27.42,0,27.42,12.84,54.85,12.84c27.42,0,27.42-12.84,54.85-12.84c27.42,0,27.42,12.84,54.85,12.84
			c27.43,0,27.43-12.84,54.85-12.84c27.43,0,27.43,12.84,54.85,12.84c27.43,0,27.43-12.84,54.85-12.84
			c27.42,0,27.42,12.84,54.85,12.84c27.42,0,27.42-12.84,54.85-12.84c27.42,0,27.42,12.84,54.85,12.84
			c27.43,0,27.43-12.84,54.85-12.84c27.42,0,27.42,12.84,54.85,12.84c27.43,0,27.43-12.84,54.85-12.84
			c27.42,0,27.42,12.84,54.85,12.84c27.43,0,27.43-12.84,54.85-12.84c27.43,0,27.43,12.84,54.85,12.84s27.43-12.84,54.85-12.84
			c27.43,0,27.43,12.84,54.85,12.84c27.43,0,27.43-12.84,54.85-12.84c27.42,0,27.42,12.84,54.85,12.84
			c27.43,0,27.43-12.84,54.85-12.84c27.42,0,27.42,12.84,54.85,12.84c27.42,0,27.42-12.84,54.85-12.84
			c27.43,0,27.43,12.84,54.85,12.84c27.43,0,27.43-12.84,54.85-12.84c27.43,0,27.43,12.84,54.85,12.84
			c27.43,0,27.43-12.84,54.85-12.84c27.43,0,27.43,12.84,54.85,12.84c27.43,0,27.43-12.84,54.85-12.84
			c27.43,0,27.43,12.84,54.85,12.84c27.43,0,27.43-12.84,54.85-12.84c27.43,0,27.43,12.84,54.85,12.84
			c27.43,0,27.43-12.84,54.86-12.84s27.43,12.84,54.86,12.84"/>
	</g>
	<g>
		<path class="st0" d="M-13.09,534.63c27.42,0,27.42,12.84,54.84,12.84c27.42,0,27.42-12.84,54.85-12.84
			c27.42,0,27.42,12.84,54.84,12.84c27.42,0,27.42-12.84,54.85-12.84c27.42,0,27.42,12.84,54.84,12.84
			c27.42,0,27.42-12.84,54.85-12.84c27.42,0,27.42,12.84,54.84,12.84c27.42,0,27.42-12.84,54.85-12.84
			c27.42,0,27.42,12.84,54.84,12.84c27.42,0,27.42-12.84,54.85-12.84c27.42,0,27.42,12.84,54.84,12.84
			c27.42,0,27.42-12.84,54.85-12.84c27.42,0,27.42,12.84,54.85,12.84c27.42,0,27.42-12.84,54.85-12.84
			c27.42,0,27.42,12.84,54.85,12.84c27.42,0,27.42-12.84,54.85-12.84c27.42,0,27.42,12.84,54.85,12.84
			c27.43,0,27.43-12.84,54.85-12.84c27.42,0,27.42,12.84,54.85,12.84c27.42,0,27.42-12.84,54.85-12.84
			c27.42,0,27.42,12.84,54.85,12.84c27.42,0,27.42-12.84,54.85-12.84c27.42,0,27.42,12.84,54.85,12.84
			c27.43,0,27.43-12.84,54.85-12.84c27.43,0,27.43,12.84,54.85,12.84c27.43,0,27.43-12.84,54.85-12.84
			c27.42,0,27.42,12.84,54.85,12.84c27.42,0,27.42-12.84,54.85-12.84c27.42,0,27.42,12.84,54.85,12.84
			c27.43,0,27.43-12.84,54.85-12.84c27.42,0,27.42,12.84,54.85,12.84c27.43,0,27.43-12.84,54.85-12.84
			c27.42,0,27.42,12.84,54.85,12.84c27.43,0,27.43-12.84,54.85-12.84c27.43,0,27.43,12.84,54.85,12.84s27.43-12.84,54.85-12.84
			c27.43,0,27.43,12.84,54.85,12.84c27.43,0,27.43-12.84,54.85-12.84c27.42,0,27.42,12.84,54.85,12.84
			c27.43,0,27.43-12.84,54.85-12.84c27.42,0,27.42,12.84,54.85,12.84c27.42,0,27.42-12.84,54.85-12.84
			c27.43,0,27.43,12.84,54.85,12.84c27.43,0,27.43-12.84,54.85-12.84c27.43,0,27.43,12.84,54.85,12.84
			c27.43,0,27.43-12.84,54.85-12.84c27.43,0,27.43,12.84,54.85,12.84c27.43,0,27.43-12.84,54.85-12.84
			c27.43,0,27.43,12.84,54.85,12.84c27.43,0,27.43-12.84,54.85-12.84c27.43,0,27.43,12.84,54.85,12.84
			c27.43,0,27.43-12.84,54.86-12.84s27.43,12.84,54.86,12.84"/>
	</g>
	<g>
		<path class="st0" d="M-13.09,612.05c27.42,0,27.42,12.84,54.84,12.84c27.42,0,27.42-12.84,54.85-12.84
			c27.42,0,27.42,12.84,54.84,12.84c27.42,0,27.42-12.84,54.85-12.84c27.42,0,27.42,12.84,54.84,12.84
			c27.42,0,27.42-12.84,54.85-12.84c27.42,0,27.42,12.84,54.84,12.84c27.42,0,27.42-12.84,54.85-12.84
			c27.42,0,27.42,12.84,54.84,12.84c27.42,0,27.42-12.84,54.85-12.84c27.42,0,27.42,12.84,54.84,12.84
			c27.42,0,27.42-12.84,54.85-12.84c27.42,0,27.42,12.84,54.85,12.84c27.42,0,27.42-12.84,54.85-12.84
			c27.42,0,27.42,12.84,54.85,12.84c27.42,0,27.42-12.84,54.85-12.84c27.42,0,27.42,12.84,54.85,12.84
			c27.43,0,27.43-12.84,54.85-12.84c27.42,0,27.42,12.84,54.85,12.84c27.42,0,27.42-12.84,54.85-12.84
			c27.42,0,27.42,12.84,54.85,12.84c27.42,0,27.42-12.84,54.85-12.84c27.42,0,27.42,12.84,54.85,12.84
			c27.43,0,27.43-12.84,54.85-12.84c27.43,0,27.43,12.84,54.85,12.84c27.43,0,27.43-12.84,54.85-12.84
			c27.42,0,27.42,12.84,54.85,12.84c27.42,0,27.42-12.84,54.85-12.84c27.42,0,27.42,12.84,54.85,12.84
			c27.43,0,27.43-12.84,54.85-12.84c27.42,0,27.42,12.84,54.85,12.84c27.43,0,27.43-12.84,54.85-12.84
			c27.42,0,27.42,12.84,54.85,12.84c27.43,0,27.43-12.84,54.85-12.84c27.43,0,27.43,12.84,54.85,12.84s27.43-12.84,54.85-12.84
			c27.43,0,27.43,12.84,54.85,12.84c27.43,0,27.43-12.84,54.85-12.84c27.42,0,27.42,12.84,54.85,12.84
			c27.43,0,27.43-12.84,54.85-12.84c27.42,0,27.42,12.84,54.85,12.84c27.42,0,27.42-12.84,54.85-12.84
			c27.43,0,27.43,12.84,54.85,12.84c27.43,0,27.43-12.84,54.85-12.84c27.43,0,27.43,12.84,54.85,12.84
			c27.43,0,27.43-12.84,54.85-12.84c27.43,0,27.43,12.84,54.85,12.84c27.43,0,27.43-12.84,54.85-12.84
			c27.43,0,27.43,12.84,54.85,12.84c27.43,0,27.43-12.84,54.85-12.84c27.43,0,27.43,12.84,54.85,12.84
			c27.43,0,27.43-12.84,54.86-12.84s27.43,12.84,54.86,12.84"/>
	</g>
	<g>
		<path class="st0" d="M-13.09,693.33c27.42,0,27.42,12.84,54.84,12.84c27.42,0,27.42-12.84,54.85-12.84
			c27.42,0,27.42,12.84,54.84,12.84c27.42,0,27.42-12.84,54.85-12.84c27.42,0,27.42,12.84,54.84,12.84
			c27.42,0,27.42-12.84,54.85-12.84c27.42,0,27.42,12.84,54.84,12.84c27.42,0,27.42-12.84,54.85-12.84
			c27.42,0,27.42,12.84,54.84,12.84c27.42,0,27.42-12.84,54.85-12.84c27.42,0,27.42,12.84,54.84,12.84
			c27.42,0,27.42-12.84,54.85-12.84c27.42,0,27.42,12.84,54.85,12.84c27.42,0,27.42-12.84,54.85-12.84
			c27.42,0,27.42,12.84,54.85,12.84c27.42,0,27.42-12.84,54.85-12.84c27.42,0,27.42,12.84,54.85,12.84
			c27.43,0,27.43-12.84,54.85-12.84c27.42,0,27.42,12.84,54.85,12.84c27.42,0,27.42-12.84,54.85-12.84
			c27.42,0,27.42,12.84,54.85,12.84c27.42,0,27.42-12.84,54.85-12.84c27.42,0,27.42,12.84,54.85,12.84
			c27.43,0,27.43-12.84,54.85-12.84c27.43,0,27.43,12.84,54.85,12.84c27.43,0,27.43-12.84,54.85-12.84
			c27.42,0,27.42,12.84,54.85,12.84c27.42,0,27.42-12.84,54.85-12.84c27.42,0,27.42,12.84,54.85,12.84
			c27.43,0,27.43-12.84,54.85-12.84c27.42,0,27.42,12.84,54.85,12.84c27.43,0,27.43-12.84,54.85-12.84
			c27.42,0,27.42,12.84,54.85,12.84c27.43,0,27.43-12.84,54.85-12.84c27.43,0,27.43,12.84,54.85,12.84s27.43-12.84,54.85-12.84
			c27.43,0,27.43,12.84,54.85,12.84c27.43,0,27.43-12.84,54.85-12.84c27.42,0,27.42,12.84,54.85,12.84
			c27.43,0,27.43-12.84,54.85-12.84c27.42,0,27.42,12.84,54.85,12.84c27.42,0,27.42-12.84,54.85-12.84
			c27.43,0,27.43,12.84,54.85,12.84c27.43,0,27.43-12.84,54.85-12.84c27.43,0,27.43,12.84,54.85,12.84
			c27.43,0,27.43-12.84,54.85-12.84c27.43,0,27.43,12.84,54.85,12.84c27.43,0,27.43-12.84,54.85-12.84
			c27.43,0,27.43,12.84,54.85,12.84c27.43,0,27.43-12.84,54.85-12.84c27.43,0,27.43,12.84,54.85,12.84
			c27.43,0,27.43-12.84,54.86-12.84s27.43,12.84,54.86,12.84"/>
	</g>
	<g>
		<path class="st0" d="M-13.09,771.41c27.42,0,27.42,12.84,54.84,12.84c27.42,0,27.42-12.84,54.85-12.84
			c27.42,0,27.42,12.84,54.84,12.84c27.42,0,27.42-12.84,54.85-12.84c27.42,0,27.42,12.84,54.84,12.84
			c27.42,0,27.42-12.84,54.85-12.84c27.42,0,27.42,12.84,54.84,12.84c27.42,0,27.42-12.84,54.85-12.84
			c27.42,0,27.42,12.84,54.84,12.84c27.42,0,27.42-12.84,54.85-12.84c27.42,0,27.42,12.84,54.84,12.84
			c27.42,0,27.42-12.84,54.85-12.84c27.42,0,27.42,12.84,54.85,12.84c27.42,0,27.42-12.84,54.85-12.84
			c27.42,0,27.42,12.84,54.85,12.84c27.42,0,27.42-12.84,54.85-12.84c27.42,0,27.42,12.84,54.85,12.84
			c27.43,0,27.43-12.84,54.85-12.84c27.42,0,27.42,12.84,54.85,12.84c27.42,0,27.42-12.84,54.85-12.84
			c27.42,0,27.42,12.84,54.85,12.84c27.42,0,27.42-12.84,54.85-12.84c27.42,0,27.42,12.84,54.85,12.84
			c27.43,0,27.43-12.84,54.85-12.84c27.43,0,27.43,12.84,54.85,12.84c27.43,0,27.43-12.84,54.85-12.84
			c27.42,0,27.42,12.84,54.85,12.84c27.42,0,27.42-12.84,54.85-12.84c27.42,0,27.42,12.84,54.85,12.84
			c27.43,0,27.43-12.84,54.85-12.84c27.42,0,27.42,12.84,54.85,12.84c27.43,0,27.43-12.84,54.85-12.84
			c27.42,0,27.42,12.84,54.85,12.84c27.43,0,27.43-12.84,54.85-12.84c27.43,0,27.43,12.84,54.85,12.84s27.43-12.84,54.85-12.84
			c27.43,0,27.43,12.84,54.85,12.84c27.43,0,27.43-12.84,54.85-12.84c27.42,0,27.42,12.84,54.85,12.84
			c27.43,0,27.43-12.84,54.85-12.84c27.42,0,27.42,12.84,54.85,12.84c27.42,0,27.42-12.84,54.85-12.84
			c27.43,0,27.43,12.84,54.85,12.84c27.43,0,27.43-12.84,54.85-12.84c27.43,0,27.43,12.84,54.85,12.84
			c27.43,0,27.43-12.84,54.85-12.84c27.43,0,27.43,12.84,54.85,12.84c27.43,0,27.43-12.84,54.85-12.84
			c27.43,0,27.43,12.84,54.85,12.84c27.43,0,27.43-12.84,54.85-12.84c27.43,0,27.43,12.84,54.85,12.84
			c27.43,0,27.43-12.84,54.86-12.84s27.43,12.84,54.86,12.84"/>
	</g>
	<g>
		<path class="st0" d="M-13.09,852.69c27.42,0,27.42,12.84,54.84,12.84c27.42,0,27.42-12.84,54.85-12.84
			c27.42,0,27.42,12.84,54.84,12.84c27.42,0,27.42-12.84,54.85-12.84c27.42,0,27.42,12.84,54.84,12.84
			c27.42,0,27.42-12.84,54.85-12.84c27.42,0,27.42,12.84,54.84,12.84c27.42,0,27.42-12.84,54.85-12.84
			c27.42,0,27.42,12.84,54.84,12.84c27.42,0,27.42-12.84,54.85-12.84c27.42,0,27.42,12.84,54.84,12.84
			c27.42,0,27.42-12.84,54.85-12.84c27.42,0,27.42,12.84,54.85,12.84c27.42,0,27.42-12.84,54.85-12.84
			c27.42,0,27.42,12.84,54.85,12.84c27.42,0,27.42-12.84,54.85-12.84c27.42,0,27.42,12.84,54.85,12.84
			c27.43,0,27.43-12.84,54.85-12.84c27.42,0,27.42,12.84,54.85,12.84c27.42,0,27.42-12.84,54.85-12.84
			c27.42,0,27.42,12.84,54.85,12.84c27.42,0,27.42-12.84,54.85-12.84c27.42,0,27.42,12.84,54.85,12.84
			c27.43,0,27.43-12.84,54.85-12.84c27.43,0,27.43,12.84,54.85,12.84c27.43,0,27.43-12.84,54.85-12.84
			c27.42,0,27.42,12.84,54.85,12.84c27.42,0,27.42-12.84,54.85-12.84c27.42,0,27.42,12.84,54.85,12.84
			c27.43,0,27.43-12.84,54.85-12.84c27.42,0,27.42,12.84,54.85,12.84c27.43,0,27.43-12.84,54.85-12.84
			c27.42,0,27.42,12.84,54.85,12.84c27.43,0,27.43-12.84,54.85-12.84c27.43,0,27.43,12.84,54.85,12.84s27.43-12.84,54.85-12.84
			c27.43,0,27.43,12.84,54.85,12.84c27.43,0,27.43-12.84,54.85-12.84c27.42,0,27.42,12.84,54.85,12.84
			c27.43,0,27.43-12.84,54.85-12.84c27.42,0,27.42,12.84,54.85,12.84c27.42,0,27.42-12.84,54.85-12.84
			c27.43,0,27.43,12.84,54.85,12.84c27.43,0,27.43-12.84,54.85-12.84c27.43,0,27.43,12.84,54.85,12.84
			c27.43,0,27.43-12.84,54.85-12.84c27.43,0,27.43,12.84,54.85,12.84c27.43,0,27.43-12.84,54.85-12.84
			c27.43,0,27.43,12.84,54.85,12.84c27.43,0,27.43-12.84,54.85-12.84c27.43,0,27.43,12.84,54.85,12.84
			c27.43,0,27.43-12.84,54.86-12.84s27.43,12.84,54.86,12.84"/>
	</g>
	<g>
		<path class="st0" d="M-13.09,933c27.42,0,27.42,12.84,54.84,12.84c27.42,0,27.42-12.84,54.85-12.84
			c27.42,0,27.42,12.84,54.84,12.84c27.42,0,27.42-12.84,54.85-12.84c27.42,0,27.42,12.84,54.84,12.84
			c27.42,0,27.42-12.84,54.85-12.84c27.42,0,27.42,12.84,54.84,12.84c27.42,0,27.42-12.84,54.85-12.84
			c27.42,0,27.42,12.84,54.84,12.84c27.42,0,27.42-12.84,54.85-12.84c27.42,0,27.42,12.84,54.84,12.84
			c27.42,0,27.42-12.84,54.85-12.84c27.42,0,27.42,12.84,54.85,12.84c27.42,0,27.42-12.84,54.85-12.84
			c27.42,0,27.42,12.84,54.85,12.84c27.42,0,27.42-12.84,54.85-12.84c27.42,0,27.42,12.84,54.85,12.84
			c27.43,0,27.43-12.84,54.85-12.84c27.42,0,27.42,12.84,54.85,12.84c27.42,0,27.42-12.84,54.85-12.84
			c27.42,0,27.42,12.84,54.85,12.84c27.42,0,27.42-12.84,54.85-12.84c27.42,0,27.42,12.84,54.85,12.84
			c27.43,0,27.43-12.84,54.85-12.84c27.43,0,27.43,12.84,54.85,12.84c27.43,0,27.43-12.84,54.85-12.84
			c27.42,0,27.42,12.84,54.85,12.84c27.42,0,27.42-12.84,54.85-12.84c27.42,0,27.42,12.84,54.85,12.84
			c27.43,0,27.43-12.84,54.85-12.84c27.42,0,27.42,12.84,54.85,12.84c27.43,0,27.43-12.84,54.85-12.84
			c27.42,0,27.42,12.84,54.85,12.84c27.43,0,27.43-12.84,54.85-12.84c27.43,0,27.43,12.84,54.85,12.84s27.43-12.84,54.85-12.84
			c27.43,0,27.43,12.84,54.85,12.84c27.43,0,27.43-12.84,54.85-12.84c27.42,0,27.42,12.84,54.85,12.84
			c27.43,0,27.43-12.84,54.85-12.84c27.42,0,27.42,12.84,54.85,12.84c27.42,0,27.42-12.84,54.85-12.84
			c27.43,0,27.43,12.84,54.85,12.84c27.43,0,27.43-12.84,54.85-12.84c27.43,0,27.43,12.84,54.85,12.84
			c27.43,0,27.43-12.84,54.85-12.84c27.43,0,27.43,12.84,54.85,12.84c27.43,0,27.43-12.84,54.85-12.84
			c27.43,0,27.43,12.84,54.85,12.84c27.43,0,27.43-12.84,54.85-12.84c27.43,0,27.43,12.84,54.85,12.84
			c27.43,0,27.43-12.84,54.86-12.84s27.43,12.84,54.86,12.84"/>
	</g>
	<g>
		<path class="st0" d="M-13.09,1014.28c27.42,0,27.42,12.84,54.84,12.84c27.42,0,27.42-12.84,54.85-12.84
			c27.42,0,27.42,12.84,54.84,12.84c27.42,0,27.42-12.84,54.85-12.84c27.42,0,27.42,12.84,54.84,12.84
			c27.42,0,27.42-12.84,54.85-12.84c27.42,0,27.42,12.84,54.84,12.84c27.42,0,27.42-12.84,54.85-12.84
			c27.42,0,27.42,12.84,54.84,12.84c27.42,0,27.42-12.84,54.85-12.84c27.42,0,27.42,12.84,54.84,12.84
			c27.42,0,27.42-12.84,54.85-12.84c27.42,0,27.42,12.84,54.85,12.84c27.42,0,27.42-12.84,54.85-12.84
			c27.42,0,27.42,12.84,54.85,12.84c27.42,0,27.42-12.84,54.85-12.84c27.42,0,27.42,12.84,54.85,12.84
			c27.43,0,27.43-12.84,54.85-12.84c27.42,0,27.42,12.84,54.85,12.84c27.42,0,27.42-12.84,54.85-12.84
			c27.42,0,27.42,12.84,54.85,12.84c27.42,0,27.42-12.84,54.85-12.84c27.42,0,27.42,12.84,54.85,12.84
			c27.43,0,27.43-12.84,54.85-12.84c27.43,0,27.43,12.84,54.85,12.84c27.43,0,27.43-12.84,54.85-12.84
			c27.42,0,27.42,12.84,54.85,12.84c27.42,0,27.42-12.84,54.85-12.84c27.42,0,27.42,12.84,54.85,12.84
			c27.43,0,27.43-12.84,54.85-12.84c27.42,0,27.42,12.84,54.85,12.84c27.43,0,27.43-12.84,54.85-12.84
			c27.42,0,27.42,12.84,54.85,12.84c27.43,0,27.43-12.84,54.85-12.84c27.43,0,27.43,12.84,54.85,12.84s27.43-12.84,54.85-12.84
			c27.43,0,27.43,12.84,54.85,12.84c27.43,0,27.43-12.84,54.85-12.84c27.42,0,27.42,12.84,54.85,12.84
			c27.43,0,27.43-12.84,54.85-12.84c27.42,0,27.42,12.84,54.85,12.84c27.42,0,27.42-12.84,54.85-12.84
			c27.43,0,27.43,12.84,54.85,12.84c27.43,0,27.43-12.84,54.85-12.84c27.43,0,27.43,12.84,54.85,12.84
			c27.43,0,27.43-12.84,54.85-12.84c27.43,0,27.43,12.84,54.85,12.84c27.43,0,27.43-12.84,54.85-12.84
			c27.43,0,27.43,12.84,54.85,12.84c27.43,0,27.43-12.84,54.85-12.84c27.43,0,27.43,12.84,54.85,12.84
			c27.43,0,27.43-12.84,54.86-12.84s27.43,12.84,54.86,12.84"/>
	</g>
	<g>
		<path class="st0" d="M-13.09,1094.64c27.42,0,27.42,12.84,54.84,12.84c27.42,0,27.42-12.84,54.85-12.84
			c27.42,0,27.42,12.84,54.84,12.84c27.42,0,27.42-12.84,54.85-12.84c27.42,0,27.42,12.84,54.84,12.84
			c27.42,0,27.42-12.84,54.85-12.84c27.42,0,27.42,12.84,54.84,12.84c27.42,0,27.42-12.84,54.85-12.84
			c27.42,0,27.42,12.84,54.84,12.84c27.42,0,27.42-12.84,54.85-12.84c27.42,0,27.42,12.84,54.84,12.84
			c27.42,0,27.42-12.84,54.85-12.84c27.42,0,27.42,12.84,54.85,12.84c27.42,0,27.42-12.84,54.85-12.84
			c27.42,0,27.42,12.84,54.85,12.84c27.42,0,27.42-12.84,54.85-12.84c27.42,0,27.42,12.84,54.85,12.84
			c27.43,0,27.43-12.84,54.85-12.84c27.42,0,27.42,12.84,54.85,12.84c27.42,0,27.42-12.84,54.85-12.84
			c27.42,0,27.42,12.84,54.85,12.84c27.42,0,27.42-12.84,54.85-12.84c27.42,0,27.42,12.84,54.85,12.84
			c27.43,0,27.43-12.84,54.85-12.84c27.43,0,27.43,12.84,54.85,12.84c27.43,0,27.43-12.84,54.85-12.84
			c27.42,0,27.42,12.84,54.85,12.84c27.42,0,27.42-12.84,54.85-12.84c27.42,0,27.42,12.84,54.85,12.84
			c27.43,0,27.43-12.84,54.85-12.84c27.42,0,27.42,12.84,54.85,12.84c27.43,0,27.43-12.84,54.85-12.84
			c27.42,0,27.42,12.84,54.85,12.84c27.43,0,27.43-12.84,54.85-12.84c27.43,0,27.43,12.84,54.85,12.84s27.43-12.84,54.85-12.84
			c27.43,0,27.43,12.84,54.85,12.84c27.43,0,27.43-12.84,54.85-12.84c27.42,0,27.42,12.84,54.85,12.84
			c27.43,0,27.43-12.84,54.85-12.84c27.42,0,27.42,12.84,54.85,12.84c27.42,0,27.42-12.84,54.85-12.84
			c27.43,0,27.43,12.84,54.85,12.84c27.43,0,27.43-12.84,54.85-12.84c27.43,0,27.43,12.84,54.85,12.84
			c27.43,0,27.43-12.84,54.85-12.84c27.43,0,27.43,12.84,54.85,12.84c27.43,0,27.43-12.84,54.85-12.84
			c27.43,0,27.43,12.84,54.85,12.84c27.43,0,27.43-12.84,54.85-12.84c27.43,0,27.43,12.84,54.85,12.84
			c27.43,0,27.43-12.84,54.86-12.84s27.43,12.84,54.86,12.84"/>
	</g>
	<g>
		<path class="st0" d="M-13.09,1175.92c27.42,0,27.42,12.84,54.84,12.84c27.42,0,27.42-12.84,54.85-12.84
			c27.42,0,27.42,12.84,54.84,12.84c27.42,0,27.42-12.84,54.85-12.84c27.42,0,27.42,12.84,54.84,12.84
			c27.42,0,27.42-12.84,54.85-12.84c27.42,0,27.42,12.84,54.84,12.84c27.42,0,27.42-12.84,54.85-12.84
			c27.42,0,27.42,12.84,54.84,12.84c27.42,0,27.42-12.84,54.85-12.84c27.42,0,27.42,12.84,54.84,12.84
			c27.42,0,27.42-12.84,54.85-12.84c27.42,0,27.42,12.84,54.85,12.84c27.42,0,27.42-12.84,54.85-12.84
			c27.42,0,27.42,12.84,54.85,12.84c27.42,0,27.42-12.84,54.85-12.84c27.42,0,27.42,12.84,54.85,12.84
			c27.43,0,27.43-12.84,54.85-12.84c27.42,0,27.42,12.84,54.85,12.84c27.42,0,27.42-12.84,54.85-12.84
			c27.42,0,27.42,12.84,54.85,12.84c27.42,0,27.42-12.84,54.85-12.84c27.42,0,27.42,12.84,54.85,12.84
			c27.43,0,27.43-12.84,54.85-12.84c27.43,0,27.43,12.84,54.85,12.84c27.43,0,27.43-12.84,54.85-12.84
			c27.42,0,27.42,12.84,54.85,12.84c27.42,0,27.42-12.84,54.85-12.84c27.42,0,27.42,12.84,54.85,12.84
			c27.43,0,27.43-12.84,54.85-12.84c27.42,0,27.42,12.84,54.85,12.84c27.43,0,27.43-12.84,54.85-12.84
			c27.42,0,27.42,12.84,54.85,12.84c27.43,0,27.43-12.84,54.85-12.84c27.43,0,27.43,12.84,54.85,12.84s27.43-12.84,54.85-12.84
			c27.43,0,27.43,12.84,54.85,12.84c27.43,0,27.43-12.84,54.85-12.84c27.42,0,27.42,12.84,54.85,12.84
			c27.43,0,27.43-12.84,54.85-12.84c27.42,0,27.42,12.84,54.85,12.84c27.42,0,27.42-12.84,54.85-12.84
			c27.43,0,27.43,12.84,54.85,12.84c27.43,0,27.43-12.84,54.85-12.84c27.43,0,27.43,12.84,54.85,12.84
			c27.43,0,27.43-12.84,54.85-12.84c27.43,0,27.43,12.84,54.85,12.84c27.43,0,27.43-12.84,54.85-12.84
			c27.43,0,27.43,12.84,54.85,12.84c27.43,0,27.43-12.84,54.85-12.84c27.43,0,27.43,12.84,54.85,12.84
			c27.43,0,27.43-12.84,54.86-12.84s27.43,12.84,54.86,12.84"/>
	</g>
	<g>
		<path class="st0" d="M-13.09,1254c27.42,0,27.42,12.84,54.84,12.84c27.42,0,27.42-12.84,54.85-12.84
			c27.42,0,27.42,12.84,54.84,12.84c27.42,0,27.42-12.84,54.85-12.84c27.42,0,27.42,12.84,54.84,12.84
			c27.42,0,27.42-12.84,54.85-12.84c27.42,0,27.42,12.84,54.84,12.84c27.42,0,27.42-12.84,54.85-12.84
			c27.42,0,27.42,12.84,54.84,12.84c27.42,0,27.42-12.84,54.85-12.84c27.42,0,27.42,12.84,54.84,12.84
			c27.42,0,27.42-12.84,54.85-12.84c27.42,0,27.42,12.84,54.85,12.84c27.42,0,27.42-12.84,54.85-12.84
			c27.42,0,27.42,12.84,54.85,12.84c27.42,0,27.42-12.84,54.85-12.84c27.42,0,27.42,12.84,54.85,12.84
			c27.43,0,27.43-12.84,54.85-12.84c27.42,0,27.42,12.84,54.85,12.84c27.42,0,27.42-12.84,54.85-12.84
			c27.42,0,27.42,12.84,54.85,12.84c27.42,0,27.42-12.84,54.85-12.84c27.42,0,27.42,12.84,54.85,12.84
			c27.43,0,27.43-12.84,54.85-12.84c27.43,0,27.43,12.84,54.85,12.84c27.43,0,27.43-12.84,54.85-12.84
			c27.42,0,27.42,12.84,54.85,12.84c27.42,0,27.42-12.84,54.85-12.84c27.42,0,27.42,12.84,54.85,12.84
			c27.43,0,27.43-12.84,54.85-12.84c27.42,0,27.42,12.84,54.85,12.84c27.43,0,27.43-12.84,54.85-12.84
			c27.42,0,27.42,12.84,54.85,12.84c27.43,0,27.43-12.84,54.85-12.84c27.43,0,27.43,12.84,54.85,12.84s27.43-12.84,54.85-12.84
			c27.43,0,27.43,12.84,54.85,12.84c27.43,0,27.43-12.84,54.85-12.84c27.42,0,27.42,12.84,54.85,12.84
			c27.43,0,27.43-12.84,54.85-12.84c27.42,0,27.42,12.84,54.85,12.84c27.42,0,27.42-12.84,54.85-12.84
			c27.43,0,27.43,12.84,54.85,12.84c27.43,0,27.43-12.84,54.85-12.84c27.43,0,27.43,12.84,54.85,12.84
			c27.43,0,27.43-12.84,54.85-12.84c27.43,0,27.43,12.84,54.85,12.84c27.43,0,27.43-12.84,54.85-12.84
			c27.43,0,27.43,12.84,54.85,12.84c27.43,0,27.43-12.84,54.85-12.84c27.43,0,27.43,12.84,54.85,12.84
			c27.43,0,27.43-12.84,54.86-12.84s27.43,12.84,54.86,12.84"/>
	</g>
	<g>
		<path class="st0" d="M-13.09,1335.28c27.42,0,27.42,12.84,54.84,12.84c27.42,0,27.42-12.84,54.85-12.84
			c27.42,0,27.42,12.84,54.84,12.84c27.42,0,27.42-12.84,54.85-12.84c27.42,0,27.42,12.84,54.84,12.84
			c27.42,0,27.42-12.84,54.85-12.84c27.42,0,27.42,12.84,54.84,12.84c27.42,0,27.42-12.84,54.85-12.84
			c27.42,0,27.42,12.84,54.84,12.84c27.42,0,27.42-12.84,54.85-12.84c27.42,0,27.42,12.84,54.84,12.84
			c27.42,0,27.42-12.84,54.85-12.84c27.42,0,27.42,12.84,54.85,12.84c27.42,0,27.42-12.84,54.85-12.84
			c27.42,0,27.42,12.84,54.85,12.84c27.42,0,27.42-12.84,54.85-12.84c27.42,0,27.42,12.84,54.85,12.84
			c27.43,0,27.43-12.84,54.85-12.84c27.42,0,27.42,12.84,54.85,12.84c27.42,0,27.42-12.84,54.85-12.84
			c27.42,0,27.42,12.84,54.85,12.84c27.42,0,27.42-12.84,54.85-12.84c27.42,0,27.42,12.84,54.85,12.84
			c27.43,0,27.43-12.84,54.85-12.84c27.43,0,27.43,12.84,54.85,12.84c27.43,0,27.43-12.84,54.85-12.84
			c27.42,0,27.42,12.84,54.85,12.84c27.42,0,27.42-12.84,54.85-12.84c27.42,0,27.42,12.84,54.85,12.84
			c27.43,0,27.43-12.84,54.85-12.84c27.42,0,27.42,12.84,54.85,12.84c27.43,0,27.43-12.84,54.85-12.84
			c27.42,0,27.42,12.84,54.85,12.84c27.43,0,27.43-12.84,54.85-12.84c27.43,0,27.43,12.84,54.85,12.84s27.43-12.84,54.85-12.84
			c27.43,0,27.43,12.84,54.85,12.84c27.43,0,27.43-12.84,54.85-12.84c27.42,0,27.42,12.84,54.85,12.84
			c27.43,0,27.43-12.84,54.85-12.84c27.42,0,27.42,12.84,54.85,12.84c27.42,0,27.42-12.84,54.85-12.84
			c27.43,0,27.43,12.84,54.85,12.84c27.43,0,27.43-12.84,54.85-12.84c27.43,0,27.43,12.84,54.85,12.84
			c27.43,0,27.43-12.84,54.85-12.84c27.43,0,27.43,12.84,54.85,12.84c27.43,0,27.43-12.84,54.85-12.84
			c27.43,0,27.43,12.84,54.85,12.84c27.43,0,27.43-12.84,54.85-12.84c27.43,0,27.43,12.84,54.85,12.84
			c27.43,0,27.43-12.84,54.86-12.84s27.43,12.84,54.86,12.84"/>
	</g>
	<g>
		<path class="st0" d="M-13.09,1415.59c27.42,0,27.42,12.84,54.84,12.84c27.42,0,27.42-12.84,54.85-12.84
			c27.42,0,27.42,12.84,54.84,12.84c27.42,0,27.42-12.84,54.85-12.84c27.42,0,27.42,12.84,54.84,12.84
			c27.42,0,27.42-12.84,54.85-12.84c27.42,0,27.42,12.84,54.84,12.84c27.42,0,27.42-12.84,54.85-12.84
			c27.42,0,27.42,12.84,54.84,12.84c27.42,0,27.42-12.84,54.85-12.84c27.42,0,27.42,12.84,54.84,12.84
			c27.42,0,27.42-12.84,54.85-12.84c27.42,0,27.42,12.84,54.85,12.84c27.42,0,27.42-12.84,54.85-12.84
			c27.42,0,27.42,12.84,54.85,12.84c27.42,0,27.42-12.84,54.85-12.84c27.42,0,27.42,12.84,54.85,12.84
			c27.43,0,27.43-12.84,54.85-12.84c27.42,0,27.42,12.84,54.85,12.84c27.42,0,27.42-12.84,54.85-12.84
			c27.42,0,27.42,12.84,54.85,12.84c27.42,0,27.42-12.84,54.85-12.84c27.42,0,27.42,12.84,54.85,12.84
			c27.43,0,27.43-12.84,54.85-12.84c27.43,0,27.43,12.84,54.85,12.84c27.43,0,27.43-12.84,54.85-12.84
			c27.42,0,27.42,12.84,54.85,12.84c27.42,0,27.42-12.84,54.85-12.84c27.42,0,27.42,12.84,54.85,12.84
			c27.43,0,27.43-12.84,54.85-12.84c27.42,0,27.42,12.84,54.85,12.84c27.43,0,27.43-12.84,54.85-12.84
			c27.42,0,27.42,12.84,54.85,12.84c27.43,0,27.43-12.84,54.85-12.84c27.43,0,27.43,12.84,54.85,12.84s27.43-12.84,54.85-12.84
			c27.43,0,27.43,12.84,54.85,12.84c27.43,0,27.43-12.84,54.85-12.84c27.42,0,27.42,12.84,54.85,12.84
			c27.43,0,27.43-12.84,54.85-12.84c27.42,0,27.42,12.84,54.85,12.84c27.42,0,27.42-12.84,54.85-12.84
			c27.43,0,27.43,12.84,54.85,12.84c27.43,0,27.43-12.84,54.85-12.84c27.43,0,27.43,12.84,54.85,12.84
			c27.43,0,27.43-12.84,54.85-12.84c27.43,0,27.43,12.84,54.85,12.84c27.43,0,27.43-12.84,54.85-12.84
			c27.43,0,27.43,12.84,54.85,12.84c27.43,0,27.43-12.84,54.85-12.84c27.43,0,27.43,12.84,54.85,12.84
			c27.43,0,27.43-12.84,54.86-12.84s27.43,12.84,54.86,12.84"/>
	</g>
	<g>
		<path class="st0" d="M-13.09,1496.87c27.42,0,27.42,12.84,54.84,12.84c27.42,0,27.42-12.84,54.85-12.84
			c27.42,0,27.42,12.84,54.84,12.84c27.42,0,27.42-12.84,54.85-12.84c27.42,0,27.42,12.84,54.84,12.84
			c27.42,0,27.42-12.84,54.85-12.84c27.42,0,27.42,12.84,54.84,12.84c27.42,0,27.42-12.84,54.85-12.84
			c27.42,0,27.42,12.84,54.84,12.84c27.42,0,27.42-12.84,54.85-12.84c27.42,0,27.42,12.84,54.84,12.84
			c27.42,0,27.42-12.84,54.85-12.84c27.42,0,27.42,12.84,54.85,12.84c27.42,0,27.42-12.84,54.85-12.84
			c27.42,0,27.42,12.84,54.85,12.84c27.42,0,27.42-12.84,54.85-12.84c27.42,0,27.42,12.84,54.85,12.84
			c27.43,0,27.43-12.84,54.85-12.84c27.42,0,27.42,12.84,54.85,12.84c27.42,0,27.42-12.84,54.85-12.84
			c27.42,0,27.42,12.84,54.85,12.84c27.42,0,27.42-12.84,54.85-12.84c27.42,0,27.42,12.84,54.85,12.84
			c27.43,0,27.43-12.84,54.85-12.84c27.43,0,27.43,12.84,54.85,12.84c27.43,0,27.43-12.84,54.85-12.84
			c27.42,0,27.42,12.84,54.85,12.84c27.42,0,27.42-12.84,54.85-12.84c27.42,0,27.42,12.84,54.85,12.84
			c27.43,0,27.43-12.84,54.85-12.84c27.42,0,27.42,12.84,54.85,12.84c27.43,0,27.43-12.84,54.85-12.84
			c27.42,0,27.42,12.84,54.85,12.84c27.43,0,27.43-12.84,54.85-12.84c27.43,0,27.43,12.84,54.85,12.84s27.43-12.84,54.85-12.84
			c27.43,0,27.43,12.84,54.85,12.84c27.43,0,27.43-12.84,54.85-12.84c27.42,0,27.42,12.84,54.85,12.84
			c27.43,0,27.43-12.84,54.85-12.84c27.42,0,27.42,12.84,54.85,12.84c27.42,0,27.42-12.84,54.85-12.84
			c27.43,0,27.43,12.84,54.85,12.84c27.43,0,27.43-12.84,54.85-12.84c27.43,0,27.43,12.84,54.85,12.84
			c27.43,0,27.43-12.84,54.85-12.84c27.43,0,27.43,12.84,54.85,12.84c27.43,0,27.43-12.84,54.85-12.84
			c27.43,0,27.43,12.84,54.85,12.84c27.43,0,27.43-12.84,54.85-12.84c27.43,0,27.43,12.84,54.85,12.84
			c27.43,0,27.43-12.84,54.86-12.84s27.43,12.84,54.86,12.84"/>
	</g>
	<g>
		<path class="st0" d="M-13.09,1576.6c27.42,0,27.42,12.84,54.84,12.84c27.42,0,27.42-12.84,54.85-12.84
			c27.42,0,27.42,12.84,54.84,12.84c27.42,0,27.42-12.84,54.85-12.84c27.42,0,27.42,12.84,54.84,12.84
			c27.42,0,27.42-12.84,54.85-12.84c27.42,0,27.42,12.84,54.84,12.84c27.42,0,27.42-12.84,54.85-12.84
			c27.42,0,27.42,12.84,54.84,12.84c27.42,0,27.42-12.84,54.85-12.84c27.42,0,27.42,12.84,54.84,12.84
			c27.42,0,27.42-12.84,54.85-12.84c27.42,0,27.42,12.84,54.85,12.84c27.42,0,27.42-12.84,54.85-12.84
			c27.42,0,27.42,12.84,54.85,12.84c27.42,0,27.42-12.84,54.85-12.84c27.42,0,27.42,12.84,54.85,12.84
			c27.43,0,27.43-12.84,54.85-12.84c27.42,0,27.42,12.84,54.85,12.84c27.42,0,27.42-12.84,54.85-12.84
			c27.42,0,27.42,12.84,54.85,12.84c27.42,0,27.42-12.84,54.85-12.84c27.42,0,27.42,12.84,54.85,12.84
			c27.43,0,27.43-12.84,54.85-12.84c27.43,0,27.43,12.84,54.85,12.84c27.43,0,27.43-12.84,54.85-12.84
			c27.42,0,27.42,12.84,54.85,12.84c27.42,0,27.42-12.84,54.85-12.84c27.42,0,27.42,12.84,54.85,12.84
			c27.43,0,27.43-12.84,54.85-12.84c27.42,0,27.42,12.84,54.85,12.84c27.43,0,27.43-12.84,54.85-12.84
			c27.42,0,27.42,12.84,54.85,12.84c27.43,0,27.43-12.84,54.85-12.84c27.43,0,27.43,12.84,54.85,12.84s27.43-12.84,54.85-12.84
			c27.43,0,27.43,12.84,54.85,12.84c27.43,0,27.43-12.84,54.85-12.84c27.42,0,27.42,12.84,54.85,12.84
			c27.43,0,27.43-12.84,54.85-12.84c27.42,0,27.42,12.84,54.85,12.84c27.42,0,27.42-12.84,54.85-12.84
			c27.43,0,27.43,12.84,54.85,12.84c27.43,0,27.43-12.84,54.85-12.84c27.43,0,27.43,12.84,54.85,12.84
			c27.43,0,27.43-12.84,54.85-12.84c27.43,0,27.43,12.84,54.85,12.84c27.43,0,27.43-12.84,54.85-12.84
			c27.43,0,27.43,12.84,54.85,12.84c27.43,0,27.43-12.84,54.85-12.84c27.43,0,27.43,12.84,54.85,12.84
			c27.43,0,27.43-12.84,54.86-12.84s27.43,12.84,54.86,12.84"/>
	</g>
	<g>
		<path class="st0" d="M-13.09,1656.91c27.42,0,27.42,12.84,54.84,12.84c27.42,0,27.42-12.84,54.85-12.84
			c27.42,0,27.42,12.84,54.84,12.84c27.42,0,27.42-12.84,54.85-12.84c27.42,0,27.42,12.84,54.84,12.84
			c27.42,0,27.42-12.84,54.85-12.84c27.42,0,27.42,12.84,54.84,12.84c27.42,0,27.42-12.84,54.85-12.84
			c27.42,0,27.42,12.84,54.84,12.84c27.42,0,27.42-12.84,54.85-12.84c27.42,0,27.42,12.84,54.84,12.84
			c27.42,0,27.42-12.84,54.85-12.84c27.42,0,27.42,12.84,54.85,12.84c27.42,0,27.42-12.84,54.85-12.84
			c27.42,0,27.42,12.84,54.85,12.84c27.42,0,27.42-12.84,54.85-12.84c27.42,0,27.42,12.84,54.85,12.84
			c27.43,0,27.43-12.84,54.85-12.84c27.42,0,27.42,12.84,54.85,12.84c27.42,0,27.42-12.84,54.85-12.84
			c27.42,0,27.42,12.84,54.85,12.84c27.42,0,27.42-12.84,54.85-12.84c27.42,0,27.42,12.84,54.85,12.84
			c27.43,0,27.43-12.84,54.85-12.84c27.43,0,27.43,12.84,54.85,12.84c27.43,0,27.43-12.84,54.85-12.84
			c27.42,0,27.42,12.84,54.85,12.84c27.42,0,27.42-12.84,54.85-12.84c27.42,0,27.42,12.84,54.85,12.84
			c27.43,0,27.43-12.84,54.85-12.84c27.42,0,27.42,12.84,54.85,12.84c27.43,0,27.43-12.84,54.85-12.84
			c27.42,0,27.42,12.84,54.85,12.84c27.43,0,27.43-12.84,54.85-12.84c27.43,0,27.43,12.84,54.85,12.84s27.43-12.84,54.85-12.84
			c27.43,0,27.43,12.84,54.85,12.84c27.43,0,27.43-12.84,54.85-12.84c27.42,0,27.42,12.84,54.85,12.84
			c27.43,0,27.43-12.84,54.85-12.84c27.42,0,27.42,12.84,54.85,12.84c27.42,0,27.42-12.84,54.85-12.84
			c27.43,0,27.43,12.84,54.85,12.84c27.43,0,27.43-12.84,54.85-12.84c27.43,0,27.43,12.84,54.85,12.84
			c27.43,0,27.43-12.84,54.85-12.84c27.43,0,27.43,12.84,54.85,12.84c27.43,0,27.43-12.84,54.85-12.84
			c27.43,0,27.43,12.84,54.85,12.84c27.43,0,27.43-12.84,54.85-12.84c27.43,0,27.43,12.84,54.85,12.84
			c27.43,0,27.43-12.84,54.86-12.84s27.43,12.84,54.86,12.84"/>
	</g>
	<g>
		<path class="st0" d="M-13.09,1738.19c27.42,0,27.42,12.84,54.84,12.84c27.42,0,27.42-12.84,54.85-12.84
			c27.42,0,27.42,12.84,54.84,12.84c27.42,0,27.42-12.84,54.85-12.84c27.42,0,27.42,12.84,54.84,12.84
			c27.42,0,27.42-12.84,54.85-12.84c27.42,0,27.42,12.84,54.84,12.84c27.42,0,27.42-12.84,54.85-12.84
			c27.42,0,27.42,12.84,54.84,12.84c27.42,0,27.42-12.84,54.85-12.84c27.42,0,27.42,12.84,54.84,12.84
			c27.42,0,27.42-12.84,54.85-12.84c27.42,0,27.42,12.84,54.85,12.84c27.42,0,27.42-12.84,54.85-12.84
			c27.42,0,27.42,12.84,54.85,12.84c27.42,0,27.42-12.84,54.85-12.84c27.42,0,27.42,12.84,54.85,12.84
			c27.43,0,27.43-12.84,54.85-12.84c27.42,0,27.42,12.84,54.85,12.84c27.42,0,27.42-12.84,54.85-12.84
			c27.42,0,27.42,12.84,54.85,12.84c27.42,0,27.42-12.84,54.85-12.84c27.42,0,27.42,12.84,54.85,12.84
			c27.43,0,27.43-12.84,54.85-12.84c27.43,0,27.43,12.84,54.85,12.84c27.43,0,27.43-12.84,54.85-12.84
			c27.42,0,27.42,12.84,54.85,12.84c27.42,0,27.42-12.84,54.85-12.84c27.42,0,27.42,12.84,54.85,12.84
			c27.43,0,27.43-12.84,54.85-12.84c27.42,0,27.42,12.84,54.85,12.84c27.43,0,27.43-12.84,54.85-12.84
			c27.42,0,27.42,12.84,54.85,12.84c27.43,0,27.43-12.84,54.85-12.84c27.43,0,27.43,12.84,54.85,12.84s27.43-12.84,54.85-12.84
			c27.43,0,27.43,12.84,54.85,12.84c27.43,0,27.43-12.84,54.85-12.84c27.42,0,27.42,12.84,54.85,12.84
			c27.43,0,27.43-12.84,54.85-12.84c27.42,0,27.42,12.84,54.85,12.84c27.42,0,27.42-12.84,54.85-12.84
			c27.43,0,27.43,12.84,54.85,12.84c27.43,0,27.43-12.84,54.85-12.84c27.43,0,27.43,12.84,54.85,12.84
			c27.43,0,27.43-12.84,54.85-12.84c27.43,0,27.43,12.84,54.85,12.84c27.43,0,27.43-12.84,54.85-12.84
			c27.43,0,27.43,12.84,54.85,12.84c27.43,0,27.43-12.84,54.85-12.84c27.43,0,27.43,12.84,54.85,12.84
			c27.43,0,27.43-12.84,54.86-12.84s27.43,12.84,54.86,12.84"/>
	</g>
</g>
</svg>
