<svg class="border shadow-md" viewBox="0 0 591.36 591.36" style="width: 591.36px; height: 591.36px;" xmlns="http://www.w3.org/2000/svg" preserveAspectRatio="none"><rect class="bg" id="bg" x="0" y="0" width="591.36" height="591.36" fill="#ffffff"/><g transform="rotate(0 295.68 295.68)"><path id="-1" d="M -197.84 -29.14 S -108.92 -58.70&#xA;            0.00 -29.14 62.84 -58.70&#xA;            197.84 -29.14 279.68 -58.70&#xA;            395.68 -29.14 484.60 -81.14&#xA;            593.52 -29.14 682.44 -60.14&#xA;            791.36 -29.14 795.20 -70.14&#xA;            989.20 -29.14 h 110 V 791.36 H -197.84 Z" fill="#1CFFC6"/><path id="0" d="M -197.84 30.00 S -142.00 -21.00&#xA;            0.00 30.00 88.92 0.43&#xA;            197.84 30.00 286.68 0.43&#xA;            395.68 30.00 413.52 -6.00&#xA;            593.52 30.00 682.44 0.43&#xA;            791.36 30.00 843.20 0.43&#xA;            989.20 30.00 h 110 V 791.36 H -197.84 Z" fill="#1bf0bb"/><path id="1" d="M -197.84 89.14 S -108.92 45.14&#xA;            0.00 89.14 9.84 59.57&#xA;            197.84 89.14 200.68 59.57&#xA;            395.68 89.14 484.60 56.14&#xA;            593.52 89.14 682.44 59.57&#xA;            791.36 89.14 822.20 57.14&#xA;            989.20 89.14 h 110 V 791.36 H -197.84 Z" fill="#1ae1b0"/><path id="2" d="M -197.84 148.27 S -163.00 118.70&#xA;            0.00 148.27 88.92 118.70&#xA;            197.84 148.27 286.76 101.27&#xA;            395.68 148.27 443.52 118.70&#xA;            593.52 148.27 682.44 93.27&#xA;            791.36 148.27 866.20 118.70&#xA;            989.20 148.27 h 110 V 791.36 H -197.84 Z" fill="#19d2a5"/><path id="3" d="M -197.84 207.41 S -124.00 177.84&#xA;            0.00 207.41 22.84 156.41&#xA;            197.84 207.41 200.68 177.84&#xA;            395.68 207.41 412.52 162.41&#xA;            593.52 207.41 682.44 165.41&#xA;            791.36 207.41 880.28 177.84&#xA;            989.20 207.41 h 110 V 791.36 H -197.84 Z" fill="#18c39a"/><path id="4" d="M -197.84 266.54 S -108.92 213.54&#xA;            0.00 266.54 88.92 236.98&#xA;            197.84 266.54 202.68 219.54&#xA;            395.68 266.54 484.52 236.98&#xA;            593.52 266.54 682.44 236.98&#xA;            791.36 266.54 880.28 236.98&#xA;            989.20 266.54 h 110 V 791.36 H -197.84 Z" fill="#17b48f"/><path id="5" d="M -197.84 325.68 S -147.00 296.11&#xA;            0.00 325.68 32.84 290.68&#xA;            197.84 325.68 270.68 268.68&#xA;            395.68 325.68 400.52 272.68&#xA;            593.52 325.68 682.44 295.68&#xA;            791.36 325.68 880.28 280.68&#xA;            989.20 325.68 h 110 V 791.36 H -197.84 Z" fill="#16a584"/><path id="6" d="M -197.84 384.82 S -167.00 330.82&#xA;            0.00 384.82 38.84 355.25&#xA;            197.84 384.82 286.76 355.25&#xA;            395.68 384.82 484.60 355.25&#xA;            593.52 384.82 682.44 331.82&#xA;            791.36 384.82 880.28 339.82&#xA;            989.20 384.82 h 110 V 791.36 H -197.84 Z" fill="#159679"/><path id="7" d="M -197.84 443.95 S -108.92 414.38&#xA;            0.00 443.95 25.84 406.95&#xA;            197.84 443.95 248.68 386.95&#xA;            395.68 443.95 484.60 414.38&#xA;            593.52 443.95 682.44 414.38&#xA;            791.36 443.95 803.20 385.95&#xA;            989.20 443.95 h 110 V 791.36 H -197.84 Z" fill="#14876e"/><path id="8" d="M -197.84 503.09 S -171.00 473.52&#xA;            0.00 503.09 38.84 447.09&#xA;            197.84 503.09 286.76 451.09&#xA;            395.68 503.09 484.60 462.09&#xA;            593.52 503.09 631.36 462.09&#xA;            791.36 503.09 825.20 452.09&#xA;            989.20 503.09 h 110 V 791.36 H -197.84 Z" fill="#137863"/><path id="9" d="M -197.84 562.22 S -135.00 532.66&#xA;            0.00 562.22 -9.16 516.22&#xA;            197.84 562.22 214.68 532.66&#xA;            395.68 562.22 468.52 532.66&#xA;            593.52 562.22 600.36 532.66&#xA;            791.36 562.22 802.20 532.66&#xA;            989.20 562.22 h 110 V 791.36 H -197.84 Z" fill="#126958"/></g></svg>